<?xml version="1.0" encoding="utf-8"?>
<!-- Generator: Adobe Illustrator 23.0.2, SVG Export Plug-In . SVG Version: 6.00 Build 0)  -->
<svg version="1.1" id="Layer_1" xmlns="http://www.w3.org/2000/svg" xmlns:xlink="http://www.w3.org/1999/xlink" x="0px" y="0px"
	 viewBox="0 0 100 44.76" style="enable-background:new 0 0 100 44.76;" xml:space="preserve">
<style type="text/css">
	.st0{fill:#FFFFFF;}
</style>
<g>
	<path class="st0" d="M47.93,43.2c0.21,0.65-0.27,1.37-1,1.34c-1.58-0.03-2.99-0.1-4.39,0.07c-2.02,0.21-2.85-0.72-3.5-2.47
		c-3.81-10.33-7.69-20.59-11.7-30.85c-0.51-1.34-1.89-2.33-2.88-3.47c-1,1.17-2.37,2.16-2.92,3.5C17.6,21,13.72,30.71,10.09,40.52
		c-1.13,3.05-2.61,4.77-6.07,4.08C2.88,44.4,1.68,44.57,0,44.57c1.89-4.74,3.6-9.06,5.32-13.38c3.26-8.2,6.49-16.44,9.74-24.64
		c1.54-3.88,5.28-6.59,9.47-6.55c7.14,0.07,7.62,3.88,11.29,13.72c3.26,8.68,6.21,15.72,9.92,24.74
		C46.66,40.59,47.39,41.48,47.93,43.2z"/>
	<path class="st0" d="M99.95,43.2c0.21,0.65-0.27,1.37-1,1.34c-1.58-0.03-2.99-0.1-4.39,0.07c-2.02,0.21-2.85-0.72-3.5-2.47
		c-3.81-10.33-7.69-20.59-11.7-30.85c-0.51-1.34-1.89-2.33-2.88-3.47c-1,1.17-2.37,2.16-2.92,3.5c-3.95,9.68-7.82,19.39-11.46,29.2
		c-1.13,3.05-2.61,4.77-6.07,4.08c-1.13-0.21-2.33-0.03-4.01-0.03c1.89-4.74,3.6-9.06,5.32-13.38c3.26-8.2,6.49-16.44,9.74-24.64
		c1.54-3.88,5.28-6.59,9.47-6.55c7.14,0.07,7.62,3.88,11.29,13.72c3.26,8.68,6.21,15.72,9.92,24.74
		C98.68,40.59,99.4,41.48,99.95,43.2z"/>
	<path class="st0" d="M60.97,13.55c1.72-4.32,3.4-8.65,5.28-13.42c-1.65,0-2.88,0.21-4.01-0.03c-3.47-0.65-4.91,1.03-6.07,4.12
		c-2.47,6.69-5.08,13.31-7.72,19.97c2.44,1.3,5.28,1.13,7.62,1.75C57.75,21.82,59.36,17.71,60.97,13.55z"/>
	<path class="st0" d="M45.6,31.19c-0.07,0.17-1.75,4.43-5.11,12.94c0,0,0.21,0.31,0.55,0.34c1.68,0.14,2.37,0.14,3.26,0.17
		c4.91,0.24,4.91-1.03,6.07-4.08c3.57-9.54,7.31-19.01,11.15-28.41c-2.16-1-5.66-0.65-7.62-1.85C51.13,17.23,48.38,24.19,45.6,31.19
		z"/>
</g>
</svg>
