<?xml version="1.0" encoding="utf-8"?>
<!-- Generator: Adobe Illustrator 23.0.2, SVG Export Plug-In . SVG Version: 6.00 Build 0)  -->
<svg version="1.1" id="Layer_1" xmlns="http://www.w3.org/2000/svg" xmlns:xlink="http://www.w3.org/1999/xlink" x="0px" y="0px"
	 viewBox="0 0 100 56.25" style="enable-background:new 0 0 100 56.25;" xml:space="preserve">
<g>
	<path d="M48.11,51.62c0.21,0.74-0.28,1.53-0.95,1.51c-1.51-0.04-2.88-0.1-4.23,0.06c-1.94,0.23-2.73-0.79-3.36-2.77
		c-3.68-11.54-7.41-23.06-11.27-34.53c-0.5-1.49-1.83-2.6-2.77-3.88c-0.96,1.3-2.29,2.42-2.82,3.92
		c-3.79,10.84-7.53,21.71-11.05,32.67c-1.1,3.43-2.51,5.33-5.85,4.58c-1.09-0.25-2.26-0.04-3.86-0.04C3.77,47.84,5.42,43,7.07,38.16
		c3.13-9.19,6.24-18.4,9.41-27.57c1.5-4.35,5.1-7.37,9.14-7.34c6.87,0.06,7.34,4.34,10.89,15.34c3.13,9.71,5.99,17.59,9.55,27.69
		C46.9,48.68,47.57,49.7,48.11,51.62z"/>
	<path d="M98.25,51.62c0.21,0.74-0.28,1.53-0.95,1.51c-1.51-0.04-2.88-0.1-4.23,0.06c-1.94,0.23-2.73-0.79-3.36-2.77
		c-3.68-11.54-7.41-23.06-11.27-34.53c-0.5-1.49-1.83-2.6-2.77-3.88c-0.96,1.3-2.29,2.42-2.82,3.92
		c-3.79,10.84-7.53,21.71-11.05,32.67c-1.1,3.43-2.51,5.33-5.85,4.58c-1.09-0.25-2.26-0.04-3.86-0.04
		c1.81-5.31,3.47-10.15,5.12-14.99c3.13-9.19,6.24-18.4,9.41-27.57c1.5-4.35,5.1-7.37,9.14-7.34c6.87,0.06,7.34,4.34,10.89,15.34
		c3.13,9.71,5.99,17.59,9.55,27.69C97.05,48.68,97.72,49.7,98.25,51.62z"/>
	<path d="M60.7,18.44c1.64-4.84,3.29-9.69,5.09-15c-1.6,0-2.77,0.21-3.86-0.03C58.59,2.66,57.19,4.57,56.09,8
		c-2.39,7.49-4.89,14.92-7.43,22.34c2.35,1.44,5.08,1.28,7.34,1.98C57.56,27.69,59.13,23.07,60.7,18.44z"/>
	<path d="M45.88,38.16c-0.07,0.2-1.69,4.96-4.94,14.47c0,0,0.19,0.34,0.54,0.38c1.64,0.17,2.29,0.14,3.14,0.19
		c4.73,0.28,4.75-1.14,5.85-4.58c3.43-10.68,7.06-21.26,10.75-31.82c-2.07-1.13-5.47-0.72-7.35-2.07
		C51.19,22.53,48.53,30.35,45.88,38.16z"/>
</g>
</svg>
